<svg xmlns="http://www.w3.org/2000/svg" width="200" height="92" viewBox="0 0 200 92">
  <g id="_해" data-name="ㅣㅐ해" transform="translate(-17.322 -634.379)">
    <rect id="사각형_3" data-name="사각형 3" width="200" height="92" transform="translate(17.322 634.379)" fill="#fff" opacity="0"/>
    <g id="그룹_22" data-name="그룹 22" transform="translate(48.217 657.284)">
      <g id="그룹_14600" data-name="그룹 14600" transform="translate(44.56 -17.905)">
        <path id="패스_21059" data-name="패스 21059" d="M546.529,579.528c.41.023.815.057,1.214.111C547.344,579.585,546.939,579.551,546.529,579.528Z" transform="translate(-511.566 -579.483)" fill="#fb4f67"/>
        <path id="패스_21060" data-name="패스 21060" d="M533.023,582.34a15.892,15.892,0,0,0-24.988,13.041,14.083,14.083,0,0,0,1.048,5.224l23.769-18.375C532.909,582.268,532.968,582.3,533.023,582.34Z" transform="translate(-508.035 -579.479)" fill="#fb4f67"/>
        <path id="패스_21061" data-name="패스 21061" d="M533.161,585.814l2.347-1.481,7.628-4.81c-.3-.016-.589-.044-.888-.044a15.848,15.848,0,0,0-2.875.272l-4.442,4.014-1.77,1.6-5.523,3.731-18.1,12.232a19.114,19.114,0,0,0,.915,1.791l16.69-12.718Z" transform="translate(-508.173 -579.479)" fill="#fb4f67"/>
        <path id="패스_21062" data-name="패스 21062" d="M533.289,589.1l4.063-2.639,9.657-6.272a15.848,15.848,0,0,0-2.531-.535l-7.619,6.122-3.57,2.867-6.651,4.48L510.932,603.7c.349.559.721,1.108,1.124,1.646l14.459-11.062Z" transform="translate(-508.301 -579.495)" fill="#fb4f67"/>
        <path id="패스_21063" data-name="패스 21063" d="M526.767,597.547l6.677-5.137,5.388-3.551,11.242-7.409a15.8,15.8,0,0,0-2.91-1.211c.283.086.557.193.834.294l-9.567,7.51-4.986,3.916-6.78,4.543-14.051,9.416c.409.521.84,1.031,1.289,1.53.009-.006.013-.012.022-.018Z" transform="translate(-508.455 -579.549)" fill="#fb4f67"/>
        <path id="패스_21064" data-name="패스 21064" d="M550.248,581.572c.219.119.427.256.639.384l-11.229,8.7-6.04,4.682-6.313,4.2-12.779,8.523c.46.49.937.967,1.426,1.435l.4-.314,11.227-8.707,6.041-4.685,6.313-4.2,12.689-8.444c.177.142.348.291.519.44l-12.846,9.877-6.676,5.133-5.391,3.555-11.24,7.415-.569.378c.5.463,1.009.912,1.527,1.352l1.119-.813,9.565-7.513,4.988-3.917,6.779-4.541,14.18-9.5c.144.163.3.319.435.488l-14.62,11.18-6.775,5.181-4.064,2.642-9.656,6.274-1.425.957q.857.706,1.73,1.367l2.223-1.789,7.62-6.124,3.571-2.871,6.651-4.477,15.9-10.7c.115.183.23.366.337.554l-16.87,12.847-6.02,4.584-2.352,1.485-7.631,4.816-2.987,2.012c.8.591,1.595,1.153,2.384,1.684l5.453-4.888,3.363-3.049,1.769-1.6,5.525-3.732,18.263-12.335c.1.242.184.492.272.741l-23.891,18.463-9.559,7.189a73.95,73.95,0,0,0,9.391,5.133s24.988-10.836,24.988-25.471A15.9,15.9,0,0,0,550.248,581.572Z" transform="translate(-508.63 -579.671)" fill="#fb4f67"/>
        <path id="패스_21067" data-name="패스 21067" d="M553.856,581.572Z" transform="translate(-512.238 -579.671)" fill="#fb4f67"/>
        <path id="패스_21070" data-name="패스 21070" d="M550.652,580.239Z" transform="translate(-511.944 -579.549)" fill="#fb4f67"/>
        <path id="패스_21072" data-name="패스 21072" d="M546.529,579.528Z" transform="translate(-511.566 -579.484)" fill="#fb4f67"/>
        <path id="패스_21073" data-name="패스 21073" d="M547.866,579.65h0Z" transform="translate(-511.689 -579.495)" fill="#fb4f67"/>
        <path id="패스_21075" data-name="패스 21075" d="M509.059,602.831c.088.248.171.5.271.74l.165-.111c-.108-.24-.221-.478-.318-.721Z" transform="translate(-508.129 -581.613)" fill="#fb4f67"/>
        <path id="패스_21076" data-name="패스 21076" d="M542.386,579.778h0Z" transform="translate(-511.186 -579.506)" fill="#fb4f67"/>
        <path id="패스_21077" data-name="패스 21077" d="M538.747,580.864l.042-.018Z" transform="translate(-510.852 -579.604)" fill="#fb4f67"/>
        <g id="그룹_14635" data-name="그룹 14635" transform="translate(1.048 0.045)">
          <path id="패스_21065" data-name="패스 21065" d="M529.9,604.859l4.064-2.642,6.775-5.181,14.62-11.18c-.138-.169-.291-.325-.435-.488l-14.18,9.5-6.779,4.541-4.988,3.917-9.565,7.513-1.119.813c.174.148.351.294.527.44l1.425-.957Z" transform="translate(-510.024 -580.064)" fill="#fff"/>
          <path id="패스_21066" data-name="패스 21066" d="M528.372,602.318l5.391-3.555,6.676-5.134,12.846-9.877c-.171-.149-.342-.3-.519-.44l-12.689,8.444-6.313,4.2-6.041,4.685-11.227,8.707-.4.314c.156.15.31.3.468.447l.569-.378Z" transform="translate(-509.822 -579.875)" fill="#fff"/>
          <path id="패스_21068" data-name="패스 21068" d="M533.573,595.342l6.04-4.682,11.229-8.7c-.213-.128-.421-.265-.639-.384h0l-11.242,7.409-5.388,3.551-6.677,5.137-12.844,9.884c-.009.006-.013.012-.022.018.15.166.3.333.45.5l12.779-8.523Z" transform="translate(-509.633 -579.716)" fill="#fff"/>
          <path id="패스_21069" data-name="패스 21069" d="M558.537,591.061c-.088-.249-.172-.5-.272-.741L540,602.655l-5.525,3.732-1.769,1.6-3.363,3.049-5.453,4.887q.6.4,1.2.786l9.559-7.189Z" transform="translate(-510.538 -580.518)" fill="#fff"/>
          <path id="패스_21071" data-name="패스 21071" d="M533.4,591.959l4.986-3.916,9.567-7.51c-.277-.1-.551-.208-.834-.294h0l-9.657,6.272-4.063,2.638-6.775,5.184L512.169,605.4c.131.176.266.35.4.523l14.051-9.416Z" transform="translate(-509.462 -579.593)" fill="#fff"/>
          <path id="패스_21074" data-name="패스 21074" d="M533.254,588.628l3.57-2.867,7.619-6.122h0c-.4-.054-.8-.088-1.214-.111h0l-7.628,4.81-2.347,1.48-6.017,4.585-16.69,12.719c.11.19.233.375.351.562L526.6,593.107Z" transform="translate(-509.314 -579.528)" fill="#fff"/>
          <path id="패스_21078" data-name="패스 21078" d="M533.129,585.391l1.77-1.6,4.441-4.014h0a15.892,15.892,0,0,0-3.262.97l-.042.018c-.451.191-.888.407-1.318.637-.1.055-.2.108-.3.164-.441.249-.874.511-1.287.8-.055-.039-.114-.072-.171-.11l-23.769,18.375c.1.243.21.481.318.721l18.1-12.232Z" transform="translate(-509.189 -579.551)" fill="#fff"/>
          <path id="패스_21079" data-name="패스 21079" d="M531.84,607.177l2.352-1.485,6.02-4.584,16.87-12.847c-.107-.188-.222-.372-.337-.554l-15.9,10.7-6.651,4.477-3.571,2.871L523,611.882l-2.223,1.789c.148.113.3.222.445.333l2.986-2.012Z" transform="translate(-510.252 -580.278)" fill="#fff"/>
        </g>
      </g>
      <text id="남서울_착한구매" data-name="남서울 착한구매" transform="translate(-22.895 52.579)" fill="#fff" font-size="26" font-family="MalgunGothic, Malgun Gothic"><tspan x="0" y="0">남서울</tspan><tspan y="0" font-family="SegoeUI, Segoe UI"> </tspan><tspan y="0">착한구매</tspan></text>
    </g>
  </g>
</svg>
